<svg width="603" height="120" viewBox="0 0 603 120" fill="none" xmlns="http://www.w3.org/2000/svg">
<mask id="mask0_208_753" style="mask-type:alpha" maskUnits="userSpaceOnUse" x="-61" y="-70" width="741" height="281">
<g clip-path="url(#clip0_208_753)">
<path d="M5.97425 114.345L-26.0434 82.3275C-29.2584 79.1125 -29.2584 73.8998 -26.0434 70.6847L78.7417 -34.1003C81.9568 -37.3154 87.1694 -37.3153 90.3844 -34.1003L122.402 -2.08269C114.364 5.9549 114.364 18.9866 122.402 27.0242C130.44 35.0618 143.471 35.0618 151.509 27.0242L183.527 59.0418C186.742 62.257 186.742 67.4695 183.527 70.6846L78.7416 175.47C75.5265 178.685 70.3139 178.685 67.0988 175.47L35.0812 143.452C43.1188 135.414 43.1188 122.383 35.0812 114.345C27.0436 106.308 14.0119 106.307 5.97425 114.345ZM49.6347 18.2921L-8.57921 76.5061L8.69726 93.7826C21.6095 89.4435 36.4381 92.4165 46.7239 102.702C57.0097 112.988 59.9828 127.817 55.6435 140.729L72.9202 158.005L131.134 99.7915L49.6347 18.2921ZM61.2775 6.64938L142.777 88.1488L166.062 64.8632L148.786 47.5865C135.874 51.9258 121.045 48.9528 110.759 38.667C100.473 28.3812 97.5005 13.5524 101.84 0.640321L84.563 -16.6361L61.2775 6.64938Z" fill="#FF8933"/>
</g>
<g clip-path="url(#clip1_208_753)">
<path d="M236.474 114.345L204.457 82.3275C201.242 79.1125 201.242 73.8998 204.457 70.6847L309.242 -34.1003C312.457 -37.3154 317.669 -37.3153 320.884 -34.1003L352.902 -2.08269C344.864 5.9549 344.864 18.9866 352.902 27.0242C360.94 35.0618 373.971 35.0618 382.009 27.0242L414.027 59.0418C417.242 62.257 417.242 67.4695 414.027 70.6846L309.242 175.47C306.027 178.685 300.814 178.685 297.599 175.47L265.581 143.452C273.619 135.414 273.619 122.383 265.581 114.345C257.544 106.308 244.512 106.307 236.474 114.345ZM280.135 18.2921L221.921 76.5061L239.197 93.7826C252.109 89.4435 266.938 92.4165 277.224 102.702C287.51 112.988 290.483 127.817 286.143 140.729L303.42 158.005L361.634 99.7915L280.135 18.2921ZM291.778 6.64938L373.277 88.1488L396.562 64.8632L379.286 47.5865C366.374 51.9258 351.545 48.9528 341.259 38.667C330.973 28.3812 328.001 13.5524 332.34 0.640321L315.063 -16.6361L291.778 6.64938Z" fill="#FF8933"/>
</g>
<g clip-path="url(#clip2_208_753)">
<path d="M466.974 114.345L434.957 82.3275C431.742 79.1125 431.742 73.8998 434.957 70.6847L539.742 -34.1003C542.957 -37.3154 548.169 -37.3153 551.384 -34.1003L583.402 -2.08269C575.364 5.9549 575.364 18.9866 583.402 27.0242C591.44 35.0618 604.471 35.0618 612.509 27.0242L644.527 59.0418C647.742 62.257 647.742 67.4695 644.527 70.6846L539.742 175.47C536.527 178.685 531.314 178.685 528.099 175.47L496.081 143.452C504.119 135.414 504.119 122.383 496.081 114.345C488.044 106.308 475.012 106.307 466.974 114.345ZM510.635 18.2921L452.421 76.5061L469.697 93.7826C482.609 89.4435 497.438 92.4165 507.724 102.702C518.01 112.988 520.983 127.817 516.643 140.729L533.92 158.005L592.134 99.7915L510.635 18.2921ZM522.278 6.64938L603.777 88.1488L627.062 64.8632L609.786 47.5865C596.874 51.9258 582.045 48.9528 571.759 38.667C561.473 28.3812 558.501 13.5524 562.84 0.640321L545.563 -16.6361L522.278 6.64938Z" fill="#FF8933"/>
</g>
</mask>
<g mask="url(#mask0_208_753)">
<path fill-rule="evenodd" clip-rule="evenodd" d="M433 22.8627C444.25 21.6191 453 12.0814 453 0.5C453 0.332902 452.998 0.166229 452.995 0H603V120H452.995C452.747 108.645 444.088 99.363 433 98.1373V91.6071H428V98.1373C416.912 99.363 408.253 108.645 408.005 120H0V0H408.005C408.002 0.166229 408 0.332902 408 0.5C408 12.0814 416.75 21.6191 428 22.8627V24.1071H433V22.8627ZM428 33.75V43.3929H433V33.75H428ZM428 53.0357V62.6786H433V53.0357H428ZM428 72.3214V81.9643H433V72.3214H428Z" fill="#CC5600"/>
</g>
<defs>
<clipPath id="clip0_208_753">
<rect width="197.584" height="197.584" fill="white" transform="translate(-61 70.7131) rotate(-45)"/>
</clipPath>
<clipPath id="clip1_208_753">
<rect width="197.584" height="197.584" fill="white" transform="translate(169.5 70.7131) rotate(-45)"/>
</clipPath>
<clipPath id="clip2_208_753">
<rect width="197.584" height="197.584" fill="white" transform="translate(400 70.7131) rotate(-45)"/>
</clipPath>
</defs>
</svg>
