<svg width="1728" height="411" viewBox="0 0 1728 411" fill="none" xmlns="http://www.w3.org/2000/svg">
<g clip-path="url(#clip0_53_401)">
<path d="M684.08 222.295L551.744 356.306C484.187 424.718 375.818 426.3 306.177 361.406L563.901 100.596L684.08 222.295Z" fill="#973AE0"/>
<path d="M3.05176e-05 236.188H364.356C360.536 332.036 282.732 408.538 187.215 408.538H3.05176e-05V236.188Z" fill="#00ADFF"/>
<path d="M749.726 229.682C847.154 229.682 926.347 309.701 926.347 408.538V407.307H573.106V408.538C573.106 309.701 652.298 229.682 749.726 229.682Z" fill="#FFD100"/>
<path d="M1097.51 253.367L847.242 -0.0683594L721.249 127.52L971.517 380.956L1097.51 253.367Z" fill="#FF0056"/>
<path d="M1406.89 195.036L1374.41 227.923H1374.06V228.275L1219.67 384.62C1184.94 419.793 1128.5 419.793 1093.59 384.62C1076.22 367.033 1067.54 343.995 1067.54 320.781C1067.54 297.742 1076.22 274.528 1093.59 256.941L1280.8 67.3569L1406.89 195.036Z" fill="#00B66C"/>
<path d="M1374.41 227.923L1374.06 228.275V227.923H1374.41Z" fill="#00B66C"/>
<path d="M1728 318.142C1728 343.115 1718.1 365.626 1701.95 381.982C1685.8 398.337 1663.57 408.362 1638.91 408.362H1374.06V228.275L1374.41 227.923H1638.91C1688.06 227.923 1728 268.372 1728 318.142Z" fill="#FF6B00"/>
<path d="M1374.41 227.923L1374.06 228.275V227.923H1374.41Z" fill="#FF6B00"/>
</g>
<defs>
<clipPath id="clip0_53_401">
<rect width="1728" height="411" fill="white"/>
</clipPath>
</defs>
</svg>
