<svg width="603" height="120" viewBox="0 0 603 120" fill="none" xmlns="http://www.w3.org/2000/svg">
<path fill-rule="evenodd" clip-rule="evenodd" d="M433 22.8627C444.25 21.6191 453 12.0814 453 0.5C453 0.332902 452.998 0.166229 452.995 0H603V120H452.995C452.747 108.645 444.088 99.363 433 98.1373V91.6071H428V98.1373C416.912 99.363 408.253 108.645 408.005 120H0V0H408.005C408.002 0.166229 408 0.332902 408 0.5C408 12.0814 416.75 21.6191 428 22.8627V24.1071H433V22.8627ZM428 33.75V43.3929H433V33.75H428ZM428 53.0357V62.6786H433V53.0357H428ZM428 72.3214V81.9643H433V72.3214H428Z" fill="#FF6B00"/>
</svg>
