<svg width="130" height="58" viewBox="0 0 130 58" fill="none" xmlns="http://www.w3.org/2000/svg">
<path d="M3.87151 0.019061C3.05261 -0.111814 2.28266 0.445943 2.15179 1.26485L0.0190565 14.6096C-0.111818 15.4286 0.445939 16.1985 1.26484 16.3294C2.08375 16.4602 2.85369 15.9025 2.98457 15.0836L4.88033 3.22154L16.7424 5.1173C17.5613 5.24818 18.3312 4.69042 18.4621 3.87152C18.593 3.05261 18.0352 2.28267 17.2163 2.15179L3.87151 0.019061ZM2.41851 2.38272C17.9592 23.8356 65.1492 64.7439 129.944 57.0495L129.59 54.0673C66.2498 61.5889 20.0087 21.5457 4.85057 0.620913L2.41851 2.38272Z" fill="#004566"/>
</svg>
