<svg width="44" height="44" viewBox="0 0 44 44" fill="none" xmlns="http://www.w3.org/2000/svg">
<path d="M4.85313 19.3797L3.98904 10.1605C3.90228 9.23472 4.58242 8.4139 5.50816 8.32714L35.6803 5.49922C36.606 5.41245 37.4268 6.09259 37.5136 7.01834L38.3777 16.2376C36.0633 16.4545 34.363 18.5065 34.5799 20.8209C34.7968 23.1353 36.8489 24.8356 39.1632 24.6187L40.0273 33.838C40.1141 34.7637 39.434 35.5845 38.5082 35.6713L8.33608 38.4992C7.41033 38.586 6.58952 37.9059 6.50275 36.9801L5.63866 27.7608C7.95304 27.5439 9.65338 25.4919 9.43646 23.1775C9.21954 20.8631 7.16751 19.1628 4.85313 19.3797ZM24.2609 9.95142L7.4986 11.5225L7.96486 16.4971C10.5642 17.4986 12.5113 19.9016 12.7889 22.8633C13.0665 25.825 11.5999 28.548 9.23183 30.0149L9.69809 34.9896L26.4604 33.4186L24.2609 9.95142ZM27.6134 9.6372L29.8128 33.1044L36.5177 32.4759L36.0515 27.5012C33.4521 26.4998 31.505 24.0969 31.2274 21.1351C30.9498 18.1734 32.4165 15.4505 34.7845 13.9834L34.3183 9.00878L27.6134 9.6372Z" fill="#006D41"/>
</svg>
