<svg width="219" height="64" viewBox="0 0 219 64" fill="none" xmlns="http://www.w3.org/2000/svg">
<g clip-path="url(#clip0_4_716)">
<path d="M44.7663 38.5696L44.5438 39.4151L44.7663 38.5696Z" fill="#606060"/>
<path d="M36.6669 14.0042V31.3601C36.6669 40.2161 29.6801 47.4254 20.8686 47.7815V14.0042H36.6669Z" fill="#973AE0"/>
<path d="M19.578 14.0042V47.826C10.7665 47.4699 3.77966 40.2161 3.77966 31.3601V14.0042H19.578Z" fill="#00ADFF"/>
<path d="M57.4496 31.8943C66.4836 31.8943 73.8264 39.2372 73.8264 48.2712V48.1822H41.0727V48.2712C41.0727 39.2372 48.3711 31.8943 57.4496 31.8943Z" fill="#FFD100"/>
<path d="M73.8709 13.8708H41.0281V30.4257H73.8709V13.8708Z" fill="#FF0056"/>
<path d="M109.562 30.4257H84.9965C80.4128 30.4257 76.7191 26.732 76.7191 22.1483C76.7191 17.5645 80.4128 13.8708 84.9965 13.8708H109.562V30.4257Z" fill="#FF6B00"/>
<path d="M76.7191 31.7161H101.284C105.868 31.7161 109.562 35.4098 109.562 39.9935C109.562 44.5773 105.868 48.271 101.284 48.271H76.7191V31.7161Z" fill="#00B66C"/>
<path d="M121.132 27.266C120.242 27.266 119.441 27.088 118.774 26.6875C118.062 26.287 117.528 25.7974 117.127 25.1299C116.727 24.4624 116.504 23.7058 116.504 22.8603V15.9624H118.596V22.7268C118.596 23.2163 118.729 23.6613 118.952 24.0618C119.174 24.4624 119.486 24.7739 119.886 24.9964C120.287 25.2189 120.687 25.3524 121.132 25.3524C121.622 25.3524 122.067 25.2189 122.468 24.9964C122.868 24.7739 123.18 24.4624 123.402 24.0618C123.625 23.6613 123.758 23.2163 123.758 22.7268V15.9624H125.761V22.9048C125.761 23.7503 125.538 24.5069 125.138 25.1744C124.737 25.8419 124.203 26.376 123.491 26.732C122.824 27.088 122.023 27.266 121.132 27.266Z" fill="#322355"/>
<path d="M128.297 27.1772V18.7217H130.211L130.255 20.4573L129.899 20.6353C129.988 20.2348 130.211 19.9233 130.522 19.5673C130.834 19.2112 131.19 18.9887 131.635 18.8107C132.08 18.6327 132.481 18.5437 132.97 18.5437C133.593 18.5437 134.127 18.6772 134.572 18.9442C135.017 19.2112 135.329 19.5673 135.551 20.1013C135.774 20.6353 135.863 21.2583 135.863 22.0149V27.1772H133.905V22.1484C133.905 21.7034 133.86 21.3474 133.727 21.0803C133.593 20.8133 133.415 20.5908 133.193 20.4573C132.926 20.3238 132.659 20.2793 132.303 20.2793C132.036 20.2793 131.769 20.3238 131.502 20.4128C131.235 20.5018 131.057 20.6353 130.879 20.8133C130.701 20.9913 130.567 21.1693 130.478 21.3919C130.389 21.6144 130.344 21.8369 130.344 22.1039V27.1772H129.276C129.098 27.1772 128.92 27.1772 128.742 27.1772C128.564 27.1772 128.431 27.1772 128.297 27.1772Z" fill="#322355"/>
<path d="M139.245 16.9416C138.844 16.9416 138.533 16.8526 138.31 16.63C138.088 16.4075 137.999 16.1405 137.999 15.7845C137.999 15.4285 138.132 15.1615 138.355 14.939C138.577 14.7164 138.889 14.6274 139.289 14.6274C139.69 14.6274 140.002 14.7164 140.224 14.939C140.447 15.117 140.536 15.4285 140.536 15.7845C140.536 16.096 140.402 16.4075 140.18 16.5855C139.957 16.7636 139.645 16.9416 139.245 16.9416ZM138.266 27.1771V18.7217H140.224V27.1771H138.266Z" fill="#322355"/>
<path d="M142.761 27.1772V15.3396H144.763V27.1772H142.761Z" fill="#322355"/>
<path d="M150.949 27.3552C150.104 27.3552 149.347 27.1772 148.679 26.7766C148.012 26.3761 147.478 25.8866 147.122 25.2191C146.766 24.5515 146.543 23.795 146.543 22.9494C146.543 22.1039 146.721 21.3474 147.122 20.6798C147.522 20.0123 148.012 19.4783 148.679 19.1222C149.347 18.7217 150.104 18.5437 150.949 18.5437C151.795 18.5437 152.551 18.7217 153.174 19.1222C153.797 19.5228 154.376 20.0123 154.732 20.6798C155.132 21.3474 155.31 22.1039 155.31 22.9494C155.31 23.795 155.132 24.5515 154.732 25.2191C154.331 25.8866 153.842 26.4206 153.174 26.7766C152.507 27.1327 151.75 27.3552 150.949 27.3552ZM150.949 25.5751C151.394 25.5751 151.839 25.4416 152.195 25.2191C152.551 24.9965 152.818 24.685 153.041 24.2845C153.263 23.884 153.352 23.439 153.352 22.9494C153.352 22.4154 153.263 21.9704 153.041 21.5699C152.818 21.1693 152.551 20.8578 152.195 20.6353C151.839 20.4128 151.439 20.2793 150.949 20.2793C150.46 20.2793 150.059 20.4128 149.703 20.6353C149.347 20.8578 149.035 21.1693 148.857 21.5699C148.635 21.9704 148.546 22.4154 148.546 22.9049C148.546 23.3945 148.635 23.8395 148.857 24.24C149.08 24.6405 149.347 24.952 149.703 25.1746C150.059 25.4861 150.46 25.5751 150.949 25.5751Z" fill="#322355"/>
<path d="M157.09 27.1772V18.7218H159.049L159.093 21.3919L158.826 20.7689C158.96 20.3239 159.138 19.9678 159.449 19.6118C159.716 19.2558 160.072 18.9888 160.428 18.8108C160.829 18.6328 161.185 18.4993 161.63 18.4993C161.808 18.4993 161.986 18.4993 162.164 18.5438C162.342 18.5883 162.475 18.6328 162.564 18.6773L162.03 20.8579C161.897 20.8134 161.763 20.7244 161.585 20.6799C161.407 20.6354 161.229 20.6354 161.051 20.6354C160.784 20.6354 160.517 20.6799 160.295 20.7689C160.072 20.8579 159.85 20.9914 159.672 21.2139C159.494 21.3919 159.36 21.6144 159.227 21.8369C159.138 22.0595 159.093 22.3265 159.093 22.638V27.1327H157.09V27.1772Z" fill="#322355"/>
<path d="M165.012 16.9416C164.611 16.9416 164.3 16.8526 164.077 16.63C163.855 16.4075 163.766 16.1405 163.766 15.7845C163.766 15.4285 163.899 15.1615 164.122 14.939C164.344 14.7164 164.656 14.6274 165.056 14.6274C165.457 14.6274 165.768 14.7164 165.991 14.939C166.213 15.117 166.302 15.4285 166.302 15.7845C166.302 16.096 166.169 16.4075 165.946 16.5855C165.724 16.7636 165.412 16.9416 165.012 16.9416ZM164.033 27.1771V18.7217H165.991V27.1771H164.033Z" fill="#322355"/>
<path d="M168.528 27.1772V18.7217H170.441L170.486 20.4573L170.13 20.6353C170.219 20.2348 170.441 19.9233 170.753 19.5673C171.064 19.2112 171.42 18.9887 171.865 18.8107C172.31 18.6327 172.711 18.5437 173.2 18.5437C173.823 18.5437 174.357 18.6772 174.802 18.9442C175.247 19.2112 175.559 19.5673 175.781 20.1013C176.004 20.6353 176.093 21.2583 176.093 22.0149V27.1772H174.135V22.1484C174.135 21.7034 174.09 21.3474 173.957 21.0803C173.823 20.8133 173.645 20.5908 173.423 20.4573C173.156 20.3238 172.889 20.2793 172.533 20.2793C172.266 20.2793 171.999 20.3238 171.732 20.4128C171.465 20.5018 171.287 20.6353 171.109 20.8133C170.931 20.9913 170.797 21.1693 170.708 21.3919C170.619 21.6144 170.575 21.8369 170.575 22.1039V27.1772H169.596C169.418 27.1772 169.24 27.1772 169.062 27.1772C168.884 27.1772 168.661 27.1772 168.528 27.1772Z" fill="#322355"/>
<path d="M117.083 37.6797V35.8551H122.557V37.6797H117.083ZM118.774 44.3106V33.719H120.732V44.3106H118.774Z" fill="#322355"/>
<path d="M128.03 44.4887C127.14 44.4887 126.339 44.3107 125.672 43.9102C125.004 43.5542 124.47 43.0201 124.07 42.3971C123.669 41.7296 123.491 41.0175 123.491 40.172C123.491 39.5045 123.58 38.9259 123.803 38.3474C124.025 37.8134 124.292 37.3238 124.693 36.9233C125.093 36.5228 125.538 36.2113 126.072 35.9888C126.606 35.7663 127.185 35.6772 127.808 35.6772C128.342 35.6772 128.876 35.7663 129.365 35.9888C129.855 36.2113 130.256 36.4783 130.612 36.8788C130.968 37.2348 131.235 37.6799 131.413 38.2139C131.591 38.7034 131.68 39.2819 131.68 39.8605V40.528H124.826L124.47 39.1929H130.033L129.766 39.4599V39.1039C129.721 38.7924 129.632 38.4809 129.454 38.2139C129.276 37.9469 129.054 37.7689 128.742 37.6354C128.475 37.5018 128.164 37.4128 127.808 37.4128C127.274 37.4128 126.829 37.5018 126.473 37.7244C126.117 37.9469 125.85 38.2139 125.672 38.6144C125.494 39.0149 125.405 39.4599 125.405 40.0385C125.405 40.5725 125.538 41.062 125.761 41.4626C125.983 41.8631 126.295 42.1746 126.74 42.3971C127.14 42.6196 127.674 42.7086 128.208 42.7086C128.609 42.7086 128.965 42.6641 129.276 42.5306C129.588 42.3971 129.944 42.1746 130.345 41.8631L131.324 43.2427C131.057 43.5097 130.701 43.7322 130.345 43.9102C129.988 44.0882 129.588 44.2662 129.187 44.3552C128.831 44.3997 128.431 44.4887 128.03 44.4887Z" fill="#322355"/>
<path d="M137.064 44.4886C136.263 44.4886 135.551 44.3106 134.928 43.91C134.305 43.5095 133.816 43.02 133.46 42.3525C133.104 41.6849 132.926 40.9284 132.926 40.1273C132.926 39.3263 133.104 38.5253 133.46 37.9022C133.816 37.2347 134.305 36.7007 134.928 36.3446C135.551 35.9441 136.263 35.7661 137.064 35.7661C137.821 35.7661 138.533 35.8996 139.111 36.2111C139.734 36.4782 140.224 36.8787 140.535 37.4127L139.467 38.7478C139.289 38.5253 139.111 38.3027 138.844 38.1247C138.577 37.9467 138.355 37.8132 138.043 37.6797C137.776 37.5907 137.509 37.5017 137.198 37.5017C136.708 37.5017 136.308 37.6352 135.952 37.8577C135.596 38.0802 135.284 38.3918 135.062 38.7923C134.839 39.1928 134.75 39.6378 134.75 40.1273C134.75 40.6169 134.839 41.0619 135.062 41.4624C135.284 41.8629 135.596 42.1745 135.952 42.397C136.308 42.6195 136.753 42.753 137.198 42.753C137.465 42.753 137.732 42.7085 137.999 42.6195C138.266 42.5305 138.488 42.397 138.755 42.219C138.978 42.041 139.2 41.8184 139.423 41.5959L140.491 42.931C140.135 43.4205 139.645 43.7765 138.978 44.0881C138.444 44.3106 137.776 44.4886 137.064 44.4886Z" fill="#322355"/>
<path d="M142.093 44.3105V32.4729H144.051V37.5907L143.695 37.7687C143.784 37.3682 144.007 37.0566 144.318 36.7006C144.63 36.3446 144.986 36.1221 145.431 35.9441C145.876 35.7661 146.276 35.6771 146.766 35.6771C147.389 35.6771 147.923 35.8106 148.368 36.0776C148.813 36.3446 149.124 36.7006 149.347 37.2347C149.569 37.7687 149.658 38.3917 149.658 39.1483V44.3105H147.7V39.2818C147.7 38.8367 147.656 38.4807 147.522 38.2137C147.389 37.9467 147.211 37.7242 146.988 37.5907C146.721 37.4572 146.454 37.4127 146.098 37.4127C145.831 37.4127 145.564 37.4572 145.297 37.5462C145.075 37.6352 144.852 37.7687 144.674 37.9467C144.496 38.1247 144.363 38.3027 144.274 38.5252C144.185 38.7477 144.14 38.9702 144.14 39.2373V44.3105H143.072C142.894 44.3105 142.716 44.3105 142.538 44.3105C142.36 44.3105 142.227 44.3105 142.093 44.3105Z" fill="#322355"/>
<path d="M159.405 44.4887C158.648 44.4887 157.98 44.3551 157.402 44.1326C156.823 43.9101 156.334 43.5096 155.933 43.0646L157.224 41.952C157.535 42.308 157.891 42.575 158.292 42.7531C158.693 42.9311 159.093 42.9756 159.538 42.9756C159.716 42.9756 159.894 42.9756 160.028 42.9311C160.161 42.8866 160.295 42.8421 160.384 42.7531C160.473 42.6641 160.562 42.575 160.651 42.4415C160.74 42.308 160.74 42.219 160.74 42.0855C160.74 41.8185 160.651 41.6405 160.473 41.4625C160.384 41.3735 160.206 41.329 159.983 41.24C159.761 41.151 159.449 41.062 159.093 40.973C158.514 40.8395 158.025 40.6614 157.669 40.4389C157.268 40.2609 157.001 40.0384 156.779 39.7714C156.601 39.5489 156.467 39.3264 156.378 39.1039C156.289 38.8368 156.245 38.5698 156.245 38.2583C156.245 37.9023 156.334 37.5463 156.512 37.2348C156.69 36.9232 156.912 36.6562 157.179 36.4337C157.446 36.2112 157.802 36.0332 158.203 35.8997C158.603 35.7662 159.004 35.7217 159.405 35.7217C159.85 35.7217 160.25 35.7662 160.651 35.8997C161.051 35.9887 161.407 36.1667 161.763 36.3447C162.119 36.5227 162.386 36.7897 162.653 37.0568L161.585 38.2583C161.363 38.0803 161.14 37.9023 160.918 37.7243C160.695 37.5908 160.428 37.4573 160.206 37.3683C159.939 37.2793 159.716 37.2348 159.538 37.2348C159.316 37.2348 159.138 37.2348 159.004 37.2793C158.871 37.3238 158.692 37.3683 158.603 37.4573C158.514 37.5463 158.425 37.6353 158.336 37.7243C158.247 37.8133 158.247 37.9468 158.247 38.1248C158.247 38.2583 158.292 38.3918 158.336 38.4808C158.381 38.6143 158.47 38.7033 158.603 38.7478C158.737 38.8368 158.915 38.9259 159.138 39.0149C159.36 39.1039 159.672 39.1929 160.072 39.2819C160.606 39.4154 161.051 39.5934 161.407 39.7269C161.763 39.8604 162.03 40.0829 162.253 40.3054C162.475 40.4834 162.609 40.7059 162.698 40.973C162.787 41.24 162.831 41.507 162.831 41.8185C162.831 42.308 162.698 42.7531 162.386 43.1536C162.119 43.5541 161.719 43.8656 161.229 44.0881C160.517 44.3551 159.983 44.4887 159.405 44.4887Z" fill="#322355"/>
<path d="M167.281 44.4887C166.658 44.4887 166.124 44.3552 165.679 44.0882C165.234 43.8212 164.878 43.4206 164.656 42.9311C164.433 42.4416 164.3 41.8185 164.3 41.1065V35.8552H166.258V40.6615C166.258 41.1065 166.347 41.507 166.48 41.8185C166.614 42.1301 166.836 42.3971 167.103 42.5306C167.37 42.7086 167.682 42.7976 168.083 42.7976C168.35 42.7976 168.617 42.7531 168.839 42.6641C169.062 42.5751 169.284 42.4416 169.418 42.2636C169.551 42.0856 169.729 41.9076 169.818 41.685C169.907 41.4625 169.952 41.1955 169.952 40.9285V35.8552H171.91V44.3107H169.996L169.952 42.5306L170.308 42.3526C170.174 42.7531 169.952 43.1091 169.64 43.4206C169.329 43.7321 168.973 43.9992 168.572 44.1772C168.172 44.3997 167.726 44.4887 167.281 44.4887Z" fill="#322355"/>
<path d="M174.224 44.3106V35.8551H176.182L176.226 37.5462L175.915 37.6797C176.004 37.4127 176.137 37.1457 176.36 36.9232C176.538 36.7007 176.761 36.4782 177.028 36.3001C177.295 36.1221 177.562 35.9886 177.873 35.8996C178.185 35.8106 178.496 35.7661 178.808 35.7661C179.253 35.7661 179.653 35.8551 180.054 35.9886C180.41 36.1221 180.721 36.3446 180.944 36.6562C181.166 36.9677 181.344 37.3682 181.478 37.8577L181.166 37.8132L181.3 37.5462C181.433 37.2792 181.567 37.0567 181.789 36.8342C182.012 36.6117 182.234 36.4336 182.501 36.2556C182.768 36.0776 183.035 35.9441 183.347 35.8996C183.658 35.8106 183.925 35.7661 184.237 35.7661C184.86 35.7661 185.394 35.8996 185.839 36.1666C186.284 36.4336 186.596 36.8342 186.818 37.3237C187.041 37.8577 187.13 38.4808 187.13 39.2818V44.3551H185.127V39.3708C185.127 38.9258 185.082 38.5698 184.949 38.3027C184.815 38.0357 184.682 37.8132 184.415 37.6797C184.192 37.5462 183.881 37.4572 183.569 37.4572C183.302 37.4572 183.035 37.5017 182.813 37.5907C182.59 37.6797 182.368 37.8132 182.19 37.9912C182.012 38.1692 181.878 38.3473 181.789 38.5698C181.7 38.7923 181.656 39.0148 181.656 39.2818V44.3106H179.653V39.3263C179.653 38.9258 179.609 38.5698 179.475 38.3027C179.342 38.0357 179.208 37.8132 178.941 37.6797C178.719 37.5462 178.452 37.4572 178.14 37.4572C177.873 37.4572 177.606 37.5017 177.384 37.5907C177.161 37.6797 176.939 37.8132 176.761 37.9467C176.583 38.1247 176.449 38.3027 176.36 38.5253C176.271 38.7478 176.226 38.9703 176.226 39.2373V44.3106H174.224Z" fill="#322355"/>
<path d="M189.177 44.3106V35.8551H191.135L191.179 37.5462L190.868 37.6797C190.957 37.4127 191.09 37.1457 191.313 36.9232C191.491 36.7007 191.713 36.4782 191.98 36.3001C192.247 36.1221 192.514 35.9886 192.826 35.8996C193.137 35.8106 193.449 35.7661 193.76 35.7661C194.205 35.7661 194.606 35.8551 195.006 35.9886C195.362 36.1221 195.674 36.3446 195.896 36.6562C196.119 36.9677 196.297 37.3682 196.431 37.8577L196.119 37.8132L196.253 37.5462C196.386 37.2792 196.52 37.0567 196.742 36.8342C196.965 36.6117 197.187 36.4336 197.454 36.2556C197.721 36.0776 197.988 35.9441 198.3 35.8996C198.611 35.8106 198.878 35.7661 199.19 35.7661C199.813 35.7661 200.347 35.8996 200.792 36.1666C201.237 36.4336 201.548 36.8342 201.771 37.3237C201.993 37.8577 202.082 38.4808 202.082 39.2818V44.3551H200.035V39.3708C200.035 38.9258 199.991 38.5698 199.857 38.3027C199.724 38.0357 199.59 37.8132 199.323 37.6797C199.101 37.5462 198.789 37.4572 198.478 37.4572C198.211 37.4572 197.944 37.5017 197.721 37.5907C197.499 37.6797 197.276 37.8132 197.098 37.9912C196.92 38.1692 196.787 38.3473 196.698 38.5698C196.609 38.7923 196.564 39.0148 196.564 39.2818V44.3106H194.561V39.3263C194.561 38.9258 194.517 38.5698 194.383 38.3027C194.25 38.0357 194.116 37.8132 193.849 37.6797C193.627 37.5462 193.36 37.4572 193.048 37.4572C192.781 37.4572 192.514 37.5017 192.292 37.5907C192.069 37.6797 191.847 37.8132 191.669 37.9467C191.491 38.1247 191.357 38.3027 191.268 38.5253C191.179 38.7478 191.135 38.9703 191.135 39.2373V44.3106H189.177Z" fill="#322355"/>
<path d="M205.42 34.0749C205.02 34.0749 204.708 33.9859 204.485 33.7633C204.263 33.5853 204.174 33.2738 204.174 32.9178C204.174 32.5618 204.307 32.2948 204.53 32.0723C204.752 31.8497 205.064 31.7607 205.465 31.7607C205.865 31.7607 206.177 31.8497 206.399 32.0723C206.622 32.2503 206.711 32.5618 206.711 32.9178C206.711 33.2293 206.577 33.5408 206.355 33.7188C206.132 33.9859 205.821 34.0749 205.42 34.0749ZM204.441 44.3104V35.855H206.399V44.3104H204.441Z" fill="#322355"/>
<path d="M208.179 37.6797V35.8551H213.653V37.6797H208.179ZM209.826 44.3106V33.719H211.784V44.3106H209.826Z" fill="#322355"/>
</g>
<defs>
<clipPath id="clip0_4_716">
<rect width="210.14" height="34.7119" fill="white" transform="translate(3.77966 13.5593)"/>
</clipPath>
</defs>
</svg>
