<svg width="40" height="40" viewBox="0 0 40 40" fill="none" xmlns="http://www.w3.org/2000/svg">
<path d="M3.34131 15.8333V6.66667C3.34131 5.7462 4.08751 5 5.00798 5H35.008C35.9285 5 36.6747 5.7462 36.6747 6.66667V15.8333C34.3735 15.8333 32.508 17.6988 32.508 20C32.508 22.3012 34.3735 24.1667 36.6747 24.1667V33.3333C36.6747 34.2538 35.9285 35 35.008 35H5.00798C4.08751 35 3.34131 34.2538 3.34131 33.3333V24.1667C5.64249 24.1667 7.50798 22.3012 7.50798 20C7.50798 17.6988 5.64249 15.8333 3.34131 15.8333ZM23.3413 8.33333H6.67464V13.2796C9.14418 14.5069 10.8413 17.0552 10.8413 20C10.8413 22.9448 9.14418 25.4932 6.67464 26.7203V31.6667H23.3413V8.33333ZM26.6747 8.33333V31.6667H33.3413V26.7203C30.8718 25.4932 29.1747 22.9448 29.1747 20C29.1747 17.0552 30.8718 14.5069 33.3413 13.2796V8.33333H26.6747Z" fill="#E0C4F6"/>
</svg>
