<svg width="1728" height="411" viewBox="0 0 1728 411" fill="none" xmlns="http://www.w3.org/2000/svg">
<g clip-path="url(#clip0_4_1124)">
<path d="M1376.8 227.923L1376.45 228.275V227.923H1376.8Z" fill="#00B66C"/>
<path d="M685.19 221.799L552.59 354.818C484.898 422.723 376.312 424.294 306.532 359.88L564.771 101L685.19 221.799Z" fill="#973AE0"/>
<path d="M0 236H364.633C360.809 331.097 282.947 407 187.357 407H0V236Z" fill="#00ADFF"/>
<path d="M750.804 230C848.334 230 927.611 309.189 927.611 407H573.997C573.997 309.189 653.273 230 750.804 230Z" fill="#FFD100"/>
<path d="M1099.42 253.368L848.716 -0.0682983L722.503 127.52L973.206 380.956L1099.42 253.368Z" fill="#FF0056"/>
<path d="M1406.44 193.954L1374.42 226.397H1374.08V226.744L1221.86 380.976C1187.61 415.675 1131.96 415.675 1097.55 380.976C1080.42 363.627 1071.86 340.9 1071.86 317.999C1071.86 295.272 1080.42 272.372 1097.55 255.023L1282.13 68L1406.44 193.954Z" fill="#00B66C"/>
<path d="M1728 317.5C1728 342.274 1718.25 364.605 1702.34 380.83C1686.43 397.056 1664.54 407 1640.25 407H1379.39V228.349L1379.74 228H1640.25C1688.66 228 1728 268.127 1728 317.5Z" fill="#FF6B00"/>
<path d="M1376.8 227.923L1376.45 228.275V227.923H1376.8Z" fill="#FF6B00"/>
</g>
<defs>
<clipPath id="clip0_4_1124">
<rect width="1728" height="411" fill="white"/>
</clipPath>
</defs>
</svg>
